<mxfile host="app.diagrams.net" agent="Mozilla/5.0 (Windows NT 10.0; Win64; x64) AppleWebKit/537.36 (KHTML, like Gecko) Chrome/127.0.0.0 Safari/537.36 OPR/113.0.0.0" version="24.8.3">
  <diagram name="Page-1" id="wsDNTH2mJtfqoYgl7ahK">
    <mxGraphModel dx="1069" dy="672" grid="1" gridSize="10" guides="1" tooltips="1" connect="1" arrows="1" fold="1" page="1" pageScale="1" pageWidth="850" pageHeight="1100" math="0" shadow="0">
      <root>
        <mxCell id="0" />
        <mxCell id="1" parent="0" />
        <mxCell id="1Z-Np3vI071uxGUuxmAv-1" value="User" style="shape=umlActor;verticalLabelPosition=bottom;verticalAlign=top;html=1;outlineConnect=0;" vertex="1" parent="1">
          <mxGeometry x="50" y="60" width="30" height="60" as="geometry" />
        </mxCell>
        <mxCell id="1Z-Np3vI071uxGUuxmAv-2" value="Mazo cartas" style="rounded=0;whiteSpace=wrap;html=1;" vertex="1" parent="1">
          <mxGeometry x="160" y="60" width="120" height="60" as="geometry" />
        </mxCell>
        <mxCell id="1Z-Np3vI071uxGUuxmAv-3" value="Mazo cartas" style="rounded=0;whiteSpace=wrap;html=1;" vertex="1" parent="1">
          <mxGeometry x="360" y="60" width="120" height="60" as="geometry" />
        </mxCell>
        <mxCell id="1Z-Np3vI071uxGUuxmAv-4" value="Mazo cartas" style="rounded=0;whiteSpace=wrap;html=1;" vertex="1" parent="1">
          <mxGeometry x="560" y="60" width="120" height="60" as="geometry" />
        </mxCell>
        <mxCell id="1Z-Np3vI071uxGUuxmAv-5" value="Mazo cartas" style="rounded=0;whiteSpace=wrap;html=1;" vertex="1" parent="1">
          <mxGeometry x="760" y="60" width="120" height="60" as="geometry" />
        </mxCell>
        <mxCell id="1Z-Np3vI071uxGUuxmAv-9" value="" style="html=1;verticalAlign=bottom;endArrow=none;dashed=1;endSize=8;curved=0;rounded=0;endFill=0;" edge="1" parent="1">
          <mxGeometry relative="1" as="geometry">
            <mxPoint x="65" y="150" as="sourcePoint" />
            <mxPoint x="65" y="240" as="targetPoint" />
          </mxGeometry>
        </mxCell>
        <mxCell id="1Z-Np3vI071uxGUuxmAv-10" value="" style="html=1;points=[[0,0,0,0,5],[0,1,0,0,-5],[1,0,0,0,5],[1,1,0,0,-5]];perimeter=orthogonalPerimeter;outlineConnect=0;targetShapes=umlLifeline;portConstraint=eastwest;newEdgeStyle={&quot;curved&quot;:0,&quot;rounded&quot;:0};" vertex="1" parent="1">
          <mxGeometry x="60" y="240" width="10" height="560" as="geometry" />
        </mxCell>
        <mxCell id="1Z-Np3vI071uxGUuxmAv-12" value="" style="html=1;verticalAlign=bottom;endArrow=none;dashed=1;endSize=8;curved=0;rounded=0;endFill=0;" edge="1" parent="1">
          <mxGeometry relative="1" as="geometry">
            <mxPoint x="220" y="150" as="sourcePoint" />
            <mxPoint x="220" y="240" as="targetPoint" />
          </mxGeometry>
        </mxCell>
        <mxCell id="1Z-Np3vI071uxGUuxmAv-13" value="" style="html=1;points=[[0,0,0,0,5],[0,1,0,0,-5],[1,0,0,0,5],[1,1,0,0,-5]];perimeter=orthogonalPerimeter;outlineConnect=0;targetShapes=umlLifeline;portConstraint=eastwest;newEdgeStyle={&quot;curved&quot;:0,&quot;rounded&quot;:0};" vertex="1" parent="1">
          <mxGeometry x="215" y="240" width="10" height="140" as="geometry" />
        </mxCell>
        <mxCell id="1Z-Np3vI071uxGUuxmAv-16" value="" style="html=1;verticalAlign=bottom;endArrow=none;dashed=1;endSize=8;curved=0;rounded=0;endFill=0;" edge="1" parent="1">
          <mxGeometry relative="1" as="geometry">
            <mxPoint x="420" y="150" as="sourcePoint" />
            <mxPoint x="420" y="240" as="targetPoint" />
          </mxGeometry>
        </mxCell>
        <mxCell id="1Z-Np3vI071uxGUuxmAv-17" value="" style="html=1;points=[[0,0,0,0,5],[0,1,0,0,-5],[1,0,0,0,5],[1,1,0,0,-5]];perimeter=orthogonalPerimeter;outlineConnect=0;targetShapes=umlLifeline;portConstraint=eastwest;newEdgeStyle={&quot;curved&quot;:0,&quot;rounded&quot;:0};" vertex="1" parent="1">
          <mxGeometry x="420" y="430" width="10" height="160" as="geometry" />
        </mxCell>
        <mxCell id="1Z-Np3vI071uxGUuxmAv-18" value="" style="html=1;verticalAlign=bottom;endArrow=none;dashed=1;endSize=8;curved=0;rounded=0;endFill=0;" edge="1" parent="1" target="1Z-Np3vI071uxGUuxmAv-19">
          <mxGeometry relative="1" as="geometry">
            <mxPoint x="620" y="150" as="sourcePoint" />
            <mxPoint x="620" y="240" as="targetPoint" />
          </mxGeometry>
        </mxCell>
        <mxCell id="1Z-Np3vI071uxGUuxmAv-19" value="" style="html=1;points=[[0,0,0,0,5],[0,1,0,0,-5],[1,0,0,0,5],[1,1,0,0,-5]];perimeter=orthogonalPerimeter;outlineConnect=0;targetShapes=umlLifeline;portConstraint=eastwest;newEdgeStyle={&quot;curved&quot;:0,&quot;rounded&quot;:0};" vertex="1" parent="1">
          <mxGeometry x="615" y="350" width="10" height="30" as="geometry" />
        </mxCell>
        <mxCell id="1Z-Np3vI071uxGUuxmAv-20" value="" style="html=1;verticalAlign=bottom;endArrow=none;dashed=1;endSize=8;curved=0;rounded=0;endFill=0;entryX=0.604;entryY=-0.064;entryDx=0;entryDy=0;entryPerimeter=0;" edge="1" parent="1" target="1Z-Np3vI071uxGUuxmAv-21">
          <mxGeometry relative="1" as="geometry">
            <mxPoint x="820" y="150" as="sourcePoint" />
            <mxPoint x="820" y="240" as="targetPoint" />
          </mxGeometry>
        </mxCell>
        <mxCell id="1Z-Np3vI071uxGUuxmAv-21" value="" style="html=1;points=[[0,0,0,0,5],[0,1,0,0,-5],[1,0,0,0,5],[1,1,0,0,-5]];perimeter=orthogonalPerimeter;outlineConnect=0;targetShapes=umlLifeline;portConstraint=eastwest;newEdgeStyle={&quot;curved&quot;:0,&quot;rounded&quot;:0};" vertex="1" parent="1">
          <mxGeometry x="815" y="560" width="10" height="90" as="geometry" />
        </mxCell>
        <mxCell id="1Z-Np3vI071uxGUuxmAv-22" value="Barajar (1)" style="endArrow=block;endFill=1;html=1;edgeStyle=orthogonalEdgeStyle;align=left;verticalAlign=top;rounded=0;" edge="1" parent="1">
          <mxGeometry x="-1" relative="1" as="geometry">
            <mxPoint x="70" y="240" as="sourcePoint" />
            <mxPoint x="210" y="240" as="targetPoint" />
            <mxPoint as="offset" />
          </mxGeometry>
        </mxCell>
        <mxCell id="1Z-Np3vI071uxGUuxmAv-27" value="Repartir 20 cartas" style="endArrow=block;endFill=1;html=1;edgeStyle=orthogonalEdgeStyle;align=left;verticalAlign=top;rounded=0;" edge="1" parent="1">
          <mxGeometry x="-1" relative="1" as="geometry">
            <mxPoint x="70" y="270" as="sourcePoint" />
            <mxPoint x="210" y="270" as="targetPoint" />
            <mxPoint as="offset" />
          </mxGeometry>
        </mxCell>
        <mxCell id="1Z-Np3vI071uxGUuxmAv-32" value="Mazo" style="html=1;verticalAlign=bottom;endArrow=open;dashed=1;endSize=8;curved=0;rounded=0;" edge="1" parent="1">
          <mxGeometry relative="1" as="geometry">
            <mxPoint x="210" y="319" as="sourcePoint" />
            <mxPoint x="70" y="318.95" as="targetPoint" />
          </mxGeometry>
        </mxCell>
        <mxCell id="1Z-Np3vI071uxGUuxmAv-33" value="frame" style="shape=umlFrame;whiteSpace=wrap;html=1;pointerEvents=0;" vertex="1" parent="1">
          <mxGeometry x="210" y="330" width="470" height="70" as="geometry" />
        </mxCell>
        <mxCell id="1Z-Np3vI071uxGUuxmAv-34" value="Ronda=true" style="text;html=1;align=center;verticalAlign=middle;resizable=0;points=[];autosize=1;strokeColor=none;fillColor=none;" vertex="1" parent="1">
          <mxGeometry x="270" y="330" width="90" height="30" as="geometry" />
        </mxCell>
        <mxCell id="1Z-Np3vI071uxGUuxmAv-35" value="" style="endArrow=block;endFill=1;html=1;edgeStyle=orthogonalEdgeStyle;align=left;verticalAlign=top;rounded=0;entryX=0;entryY=1;entryDx=0;entryDy=-5;entryPerimeter=0;" edge="1" parent="1" target="1Z-Np3vI071uxGUuxmAv-19">
          <mxGeometry x="-1" relative="1" as="geometry">
            <mxPoint x="225" y="370" as="sourcePoint" />
            <mxPoint x="365" y="370" as="targetPoint" />
            <mxPoint as="offset" />
          </mxGeometry>
        </mxCell>
        <mxCell id="1Z-Np3vI071uxGUuxmAv-37" value="Puntuar (2)" style="edgeLabel;html=1;align=center;verticalAlign=middle;resizable=0;points=[];" vertex="1" connectable="0" parent="1Z-Np3vI071uxGUuxmAv-35">
          <mxGeometry x="0.0048" relative="1" as="geometry">
            <mxPoint as="offset" />
          </mxGeometry>
        </mxCell>
        <mxCell id="1Z-Np3vI071uxGUuxmAv-38" value="While" style="shape=umlFrame;whiteSpace=wrap;html=1;pointerEvents=0;" vertex="1" parent="1">
          <mxGeometry x="40" y="410" width="850" height="200" as="geometry" />
        </mxCell>
        <mxCell id="1Z-Np3vI071uxGUuxmAv-39" value="Hay cartas () = true" style="text;html=1;align=center;verticalAlign=middle;resizable=0;points=[];autosize=1;strokeColor=none;fillColor=none;" vertex="1" parent="1">
          <mxGeometry x="95" y="410" width="130" height="30" as="geometry" />
        </mxCell>
        <mxCell id="1Z-Np3vI071uxGUuxmAv-40" value="" style="html=1;verticalAlign=bottom;endArrow=none;dashed=1;endSize=8;curved=0;rounded=0;endFill=0;" edge="1" parent="1">
          <mxGeometry relative="1" as="geometry">
            <mxPoint x="219.47" y="380" as="sourcePoint" />
            <mxPoint x="220" y="800" as="targetPoint" />
          </mxGeometry>
        </mxCell>
        <mxCell id="1Z-Np3vI071uxGUuxmAv-44" value="" style="endArrow=classic;html=1;rounded=0;" edge="1" parent="1" source="1Z-Np3vI071uxGUuxmAv-10" target="1Z-Np3vI071uxGUuxmAv-17">
          <mxGeometry width="50" height="50" relative="1" as="geometry">
            <mxPoint x="200" y="550" as="sourcePoint" />
            <mxPoint x="250" y="500" as="targetPoint" />
            <Array as="points">
              <mxPoint x="140" y="460" />
            </Array>
          </mxGeometry>
        </mxCell>
        <mxCell id="1Z-Np3vI071uxGUuxmAv-45" value="Jugar carta (1)" style="edgeLabel;html=1;align=center;verticalAlign=middle;resizable=0;points=[];" vertex="1" connectable="0" parent="1Z-Np3vI071uxGUuxmAv-44">
          <mxGeometry x="-0.1764" y="-1" relative="1" as="geometry">
            <mxPoint as="offset" />
          </mxGeometry>
        </mxCell>
        <mxCell id="1Z-Np3vI071uxGUuxmAv-46" value="" style="endArrow=classic;html=1;rounded=0;exitX=1.353;exitY=0.424;exitDx=0;exitDy=0;exitPerimeter=0;" edge="1" parent="1">
          <mxGeometry width="50" height="50" relative="1" as="geometry">
            <mxPoint x="74" y="499.79" as="sourcePoint" />
            <mxPoint x="420" y="499.79" as="targetPoint" />
          </mxGeometry>
        </mxCell>
        <mxCell id="1Z-Np3vI071uxGUuxmAv-47" value="Caer() / limpiar ()&amp;nbsp;" style="edgeLabel;html=1;align=center;verticalAlign=middle;resizable=0;points=[];" vertex="1" connectable="0" parent="1Z-Np3vI071uxGUuxmAv-46">
          <mxGeometry x="-0.1764" y="-1" relative="1" as="geometry">
            <mxPoint as="offset" />
          </mxGeometry>
        </mxCell>
        <mxCell id="1Z-Np3vI071uxGUuxmAv-51" value="" style="endArrow=classic;html=1;rounded=0;exitX=1.353;exitY=0.424;exitDx=0;exitDy=0;exitPerimeter=0;" edge="1" parent="1" target="1Z-Np3vI071uxGUuxmAv-50">
          <mxGeometry width="50" height="50" relative="1" as="geometry">
            <mxPoint x="430" y="530" as="sourcePoint" />
            <mxPoint x="776" y="530" as="targetPoint" />
          </mxGeometry>
        </mxCell>
        <mxCell id="1Z-Np3vI071uxGUuxmAv-52" value="Puntuar (2)" style="edgeLabel;html=1;align=center;verticalAlign=middle;resizable=0;points=[];" vertex="1" connectable="0" parent="1Z-Np3vI071uxGUuxmAv-51">
          <mxGeometry x="-0.1764" y="-1" relative="1" as="geometry">
            <mxPoint as="offset" />
          </mxGeometry>
        </mxCell>
        <mxCell id="1Z-Np3vI071uxGUuxmAv-50" value="" style="html=1;points=[[0,0,0,0,5],[0,1,0,0,-5],[1,0,0,0,5],[1,1,0,0,-5]];perimeter=orthogonalPerimeter;outlineConnect=0;targetShapes=umlLifeline;portConstraint=eastwest;newEdgeStyle={&quot;curved&quot;:0,&quot;rounded&quot;:0};" vertex="1" parent="1">
          <mxGeometry x="615" y="520" width="10" height="30" as="geometry" />
        </mxCell>
        <mxCell id="1Z-Np3vI071uxGUuxmAv-53" value="" style="html=1;verticalAlign=bottom;endArrow=none;dashed=1;endSize=8;curved=0;rounded=0;endFill=0;" edge="1" parent="1" source="1Z-Np3vI071uxGUuxmAv-19">
          <mxGeometry relative="1" as="geometry">
            <mxPoint x="619.7" y="370" as="sourcePoint" />
            <mxPoint x="620" y="520" as="targetPoint" />
          </mxGeometry>
        </mxCell>
        <mxCell id="1Z-Np3vI071uxGUuxmAv-55" value="" style="endArrow=classic;html=1;rounded=0;exitX=1.353;exitY=0.424;exitDx=0;exitDy=0;exitPerimeter=0;" edge="1" parent="1">
          <mxGeometry width="50" height="50" relative="1" as="geometry">
            <mxPoint x="74" y="560" as="sourcePoint" />
            <mxPoint x="420" y="560" as="targetPoint" />
          </mxGeometry>
        </mxCell>
        <mxCell id="1Z-Np3vI071uxGUuxmAv-56" value="Recoger ()" style="edgeLabel;html=1;align=center;verticalAlign=middle;resizable=0;points=[];" vertex="1" connectable="0" parent="1Z-Np3vI071uxGUuxmAv-55">
          <mxGeometry x="-0.1764" y="-1" relative="1" as="geometry">
            <mxPoint as="offset" />
          </mxGeometry>
        </mxCell>
        <mxCell id="1Z-Np3vI071uxGUuxmAv-57" value="" style="endArrow=classic;html=1;rounded=0;exitX=1.353;exitY=0.424;exitDx=0;exitDy=0;exitPerimeter=0;" edge="1" parent="1" target="1Z-Np3vI071uxGUuxmAv-21">
          <mxGeometry width="50" height="50" relative="1" as="geometry">
            <mxPoint x="430" y="580" as="sourcePoint" />
            <mxPoint x="615" y="580" as="targetPoint" />
          </mxGeometry>
        </mxCell>
        <mxCell id="1Z-Np3vI071uxGUuxmAv-58" value="Acumular ()" style="edgeLabel;html=1;align=center;verticalAlign=middle;resizable=0;points=[];" vertex="1" connectable="0" parent="1Z-Np3vI071uxGUuxmAv-57">
          <mxGeometry x="-0.1764" y="-1" relative="1" as="geometry">
            <mxPoint as="offset" />
          </mxGeometry>
        </mxCell>
        <mxCell id="1Z-Np3vI071uxGUuxmAv-59" value="Cartón" style="html=1;verticalAlign=bottom;endArrow=open;dashed=1;endSize=8;curved=0;rounded=0;" edge="1" parent="1" target="1Z-Np3vI071uxGUuxmAv-10">
          <mxGeometry relative="1" as="geometry">
            <mxPoint x="810" y="640.05" as="sourcePoint" />
            <mxPoint x="670" y="640" as="targetPoint" />
          </mxGeometry>
        </mxCell>
        <mxCell id="1Z-Np3vI071uxGUuxmAv-60" value="" style="html=1;points=[[0,0,0,0,5],[0,1,0,0,-5],[1,0,0,0,5],[1,1,0,0,-5]];perimeter=orthogonalPerimeter;outlineConnect=0;targetShapes=umlLifeline;portConstraint=eastwest;newEdgeStyle={&quot;curved&quot;:0,&quot;rounded&quot;:0};" vertex="1" parent="1">
          <mxGeometry x="615" y="680" width="10" height="50" as="geometry" />
        </mxCell>
        <mxCell id="1Z-Np3vI071uxGUuxmAv-63" value="" style="html=1;verticalAlign=bottom;endArrow=none;dashed=1;endSize=8;curved=0;rounded=0;endFill=0;" edge="1" parent="1" target="1Z-Np3vI071uxGUuxmAv-60">
          <mxGeometry relative="1" as="geometry">
            <mxPoint x="619.7" y="550" as="sourcePoint" />
            <mxPoint x="619.7" y="690" as="targetPoint" />
          </mxGeometry>
        </mxCell>
        <mxCell id="1Z-Np3vI071uxGUuxmAv-64" value="" style="endArrow=classic;html=1;rounded=0;exitX=1.353;exitY=0.424;exitDx=0;exitDy=0;exitPerimeter=0;" edge="1" parent="1" target="1Z-Np3vI071uxGUuxmAv-60">
          <mxGeometry width="50" height="50" relative="1" as="geometry">
            <mxPoint x="70" y="690" as="sourcePoint" />
            <mxPoint x="416" y="690" as="targetPoint" />
          </mxGeometry>
        </mxCell>
        <mxCell id="1Z-Np3vI071uxGUuxmAv-65" value="Puntuar (Puntos cartas acumuladas())" style="edgeLabel;html=1;align=center;verticalAlign=middle;resizable=0;points=[];" vertex="1" connectable="0" parent="1Z-Np3vI071uxGUuxmAv-64">
          <mxGeometry x="-0.1764" y="-1" relative="1" as="geometry">
            <mxPoint as="offset" />
          </mxGeometry>
        </mxCell>
        <mxCell id="1Z-Np3vI071uxGUuxmAv-66" value="Puntaje acumulado" style="html=1;verticalAlign=bottom;endArrow=open;dashed=1;endSize=8;curved=0;rounded=0;" edge="1" parent="1" source="1Z-Np3vI071uxGUuxmAv-60" target="1Z-Np3vI071uxGUuxmAv-10">
          <mxGeometry relative="1" as="geometry">
            <mxPoint x="610" y="710" as="sourcePoint" />
            <mxPoint x="-30" y="730" as="targetPoint" />
            <Array as="points">
              <mxPoint x="430" y="720" />
            </Array>
          </mxGeometry>
        </mxCell>
        <mxCell id="1Z-Np3vI071uxGUuxmAv-67" value="" style="html=1;verticalAlign=bottom;endArrow=none;dashed=1;endSize=8;curved=0;rounded=0;endFill=0;" edge="1" parent="1">
          <mxGeometry relative="1" as="geometry">
            <mxPoint x="819.57" y="650" as="sourcePoint" />
            <mxPoint x="820" y="800" as="targetPoint" />
          </mxGeometry>
        </mxCell>
        <mxCell id="1Z-Np3vI071uxGUuxmAv-68" value="" style="html=1;verticalAlign=bottom;endArrow=none;dashed=1;endSize=8;curved=0;rounded=0;endFill=0;" edge="1" parent="1">
          <mxGeometry relative="1" as="geometry">
            <mxPoint x="619.57" y="730" as="sourcePoint" />
            <mxPoint x="620" y="800" as="targetPoint" />
          </mxGeometry>
        </mxCell>
        <mxCell id="1Z-Np3vI071uxGUuxmAv-69" value="" style="html=1;verticalAlign=bottom;endArrow=none;dashed=1;endSize=8;curved=0;rounded=0;endFill=0;" edge="1" parent="1">
          <mxGeometry relative="1" as="geometry">
            <mxPoint x="424.00000000000006" y="590" as="sourcePoint" />
            <mxPoint x="424" y="800" as="targetPoint" />
          </mxGeometry>
        </mxCell>
        <mxCell id="1Z-Np3vI071uxGUuxmAv-70" value="While" style="shape=umlFrame;whiteSpace=wrap;html=1;pointerEvents=0;" vertex="1" parent="1">
          <mxGeometry x="20" y="170" width="890" height="590" as="geometry" />
        </mxCell>
        <mxCell id="1Z-Np3vI071uxGUuxmAv-71" value="Puntaje menor a 40" style="text;html=1;align=center;verticalAlign=middle;resizable=0;points=[];autosize=1;strokeColor=none;fillColor=none;" vertex="1" parent="1">
          <mxGeometry x="85" y="170" width="130" height="30" as="geometry" />
        </mxCell>
      </root>
    </mxGraphModel>
  </diagram>
</mxfile>
